<svg width="417" height="384" viewBox="0 0 417 384" fill="none" xmlns="http://www.w3.org/2000/svg">
<path d="M78.33 138.395L37.9705 125.558L36.6891 381.509H83.3437L78.3299 370.309C100.892 289.441 78.33 138.395 78.33 138.395Z" fill="#6115DD"/>
<path d="M66.6801 295.746C66.6801 235.798 54.5037 187.2 39.4834 187.2C38.8676 187.204 38.2549 187.288 37.6606 187.449L36.6891 381.509H56.1536C62.5582 361.65 66.6801 330.621 66.6801 295.746Z" fill="#282447"/>
<path d="M65.024 141.524C65.024 141.524 74.6603 298.729 47.4435 373.16L53.1287 381.509H4.72042C4.72042 381.509 0 189.008 0 145.85L65.024 141.524Z" fill="#6115DD"/>
<path d="M54.7443 19.8929V40.3232L29.4231 46.5437V12.0663L54.7443 5.84583V19.8929Z" fill="#DAE8F7"/>
<path d="M37.9705 30.5853C37.9705 30.5853 44.1363 28.5576 46.1651 31.6589C46.1651 31.6589 48.7379 28.7738 52.0524 31.1023" stroke="#6115DD" stroke-linecap="round" stroke-linejoin="round"/>
<path d="M40.4405 26.9614C40.8144 26.9614 41.1175 26.6585 41.1175 26.2847C41.1175 25.911 40.8144 25.608 40.4405 25.608C40.0665 25.608 39.7634 25.911 39.7634 26.2847C39.7634 26.6585 40.0665 26.9614 40.4405 26.9614Z" fill="#282447"/>
<path d="M50.8392 26.9614C51.2131 26.9614 51.5162 26.6585 51.5162 26.2847C51.5162 25.911 51.2131 25.608 50.8392 25.608C50.4653 25.608 50.1622 25.911 50.1622 26.2847C50.1622 26.6585 50.4653 26.9614 50.8392 26.9614Z" fill="#282447"/>
<path d="M47.7886 30.3216V19.8929H53.0156" stroke="#282447"/>
<path d="M39.165 19.8929H44.3919" stroke="#282447"/>
<path d="M31.0907 25.2363V28.8578C29.1362 28.8578 27.5518 27.2741 27.5518 25.3206C27.5518 25.2121 27.5566 25.1048 27.5663 24.9987C27.7646 22.8022 31.0907 23.0309 31.0907 25.2363Z" fill="#DAE8F7"/>
<path d="M31.0907 28.8578C29.1362 28.8578 27.5518 27.2742 27.5518 25.3207" stroke="#282447"/>
<path d="M44.7123 32.8924C43.6067 32.8924 42.7104 31.9966 42.7104 30.8915" stroke="#6115DD" stroke-linecap="round" stroke-linejoin="round"/>
<path d="M36.6891 44.7585L29.4229 46.5436" stroke="#282447"/>
<path d="M47.7885 30.3299L45.5023 30.8915" stroke="#282447" stroke-linecap="round"/>
<path d="M78.33 83.1286V138.395L0 157.638V96.0862C4.90802e-06 74.261 14.9071 55.2556 36.1117 50.0464H36.1118C46.2808 47.5483 57.0343 49.861 65.2753 56.3187C73.5163 62.7763 78.33 72.662 78.33 83.1286L78.33 83.1286Z" fill="#DAE8F7"/>
<path d="M32.3354 26.2847C32.3354 26.2847 28.5166 38.8157 37.4272 45.3364C45.7234 51.4074 58.8006 47.853 55.7062 33.6522C55.0637 30.6886 54.7412 27.6648 54.7441 24.6325V23.7864" stroke="#6115DD" stroke-linecap="round" stroke-linejoin="round"/>
<path d="M29.3212 23.4645C29.3212 23.4645 20.8977 8.04575 33.8684 5.26765C33.8684 5.26765 39.1427 -1.31746 46.6453 1.8722C54.148 5.06186 57.7509 2.82294 57.8539 5.84591C57.9568 8.86888 58.3256 13.9106 54.7441 16.4829" stroke="#6115DD" stroke-linecap="round" stroke-linejoin="round"/>
<path d="M34.5631 23.4622L36.6891 14.8006C36.6891 14.8006 52.1714 15.0392 54.7442 10.8246" stroke="#6115DD" stroke-linecap="round" stroke-linejoin="round"/>
<path d="M65.0239 141.524C65.0239 141.524 74.6603 298.729 47.4434 373.16L53.1286 381.509" stroke="#282447"/>
<path d="M16.0525 60.532C16.0525 60.532 2.89876 112.451 18.8105 131.854C34.7223 151.257 109.189 139.806 130.829 118.813C130.829 118.813 138.467 116.905 140.058 113.088C140.058 113.088 147.377 118.495 147.059 114.996C146.741 111.497 144.195 100.594 131.147 103.342C118.1 106.09 54.7442 107.362 54.7442 107.362L56.1706 80.0072" stroke="#282447"/>
<path d="M74.7191 67.8231C74.7191 67.8231 84.2894 86.3636 83.0552 106.564" stroke="#282447"/>
<path d="M79.9503 150.379C79.9503 150.379 105.448 160.501 116.229 128.365" stroke="#282447"/>
<path d="M91.7053 106.24C91.7053 106.24 118.722 92.2926 122.873 98.1378L127.025 103.983" stroke="#282447"/>
<path d="M344.195 1.00012H170.336V111.961L114.433 167.837V381.509H91.705" stroke="#282447"/>
<path d="M120.603 382.702H417" stroke="#282447" stroke-width="1.5"/>
<path d="M381.945 380.371C381.945 380.371 387.052 371.339 374.088 369.376C366.384 368.186 358.501 369.137 351.302 372.125C351.302 372.125 360.338 361.13 346.195 356.418C332.052 351.706 317.516 362.701 317.516 362.701C317.516 362.701 331.659 336.392 320.659 334.428C309.659 332.465 303.766 343.852 303.766 343.852C303.766 343.852 304.944 311.261 282.159 310.475C259.373 309.69 261.73 352.098 261.73 352.098C261.73 352.098 251.908 333.25 235.408 332.465C218.908 331.68 227.158 364.037 227.158 364.037C227.158 364.037 224.015 356.418 213.015 355.632C202.015 354.847 202.801 364.062 202.801 364.062C202.801 364.062 188.658 344.245 172.944 345.423C157.229 346.601 163.908 366.234 163.908 366.234C147.801 365.056 144.265 382.702 144.265 382.702H393.338L381.945 380.371Z" fill="#282447"/>
<rect x="177.879" y="189.206" width="190.978" height="111.472" fill="#282447"/>
<rect x="153.216" y="164.555" width="190.978" height="111.472" fill="#DAE8F7"/>
<path d="M344.195 164.616V276.088L153.217 275.966" stroke="#282447" stroke-width="1.5"/>
<path d="M248.705 255.378C268.093 255.378 283.809 239.669 283.809 220.291C283.809 200.913 268.093 185.204 248.705 185.204C229.318 185.204 213.602 200.913 213.602 220.291C213.602 239.669 229.318 255.378 248.705 255.378Z" fill="#6115DD"/>
<path d="M174.746 261.752C178.702 261.752 181.909 258.547 181.909 254.593C181.909 250.639 178.702 247.434 174.746 247.434C170.791 247.434 167.584 250.639 167.584 254.593C167.584 258.547 170.791 261.752 174.746 261.752Z" fill="#B5D1EF"/>
<path d="M322.665 193.148C326.62 193.148 329.827 189.943 329.827 185.989C329.827 182.035 326.62 178.83 322.665 178.83C318.709 178.83 315.502 182.035 315.502 185.989C315.502 189.943 318.709 193.148 322.665 193.148Z" fill="#B5D1EF"/>
<path d="M322.665 261.752C326.62 261.752 329.827 258.547 329.827 254.593C329.827 250.639 326.62 247.434 322.665 247.434C318.709 247.434 315.502 250.639 315.502 254.593C315.502 258.547 318.709 261.752 322.665 261.752Z" fill="#B5D1EF"/>
<path d="M174.746 193.148C178.702 193.148 181.909 189.943 181.909 185.989C181.909 182.035 178.702 178.83 174.746 178.83C170.791 178.83 167.584 182.035 167.584 185.989C167.584 189.943 170.791 193.148 174.746 193.148Z" fill="#B5D1EF"/>
<path d="M248.705 220.291C243.206 220.291 238.748 215.835 238.748 210.338C238.748 204.842 243.206 200.386 248.705 200.386C254.205 200.386 258.663 204.842 258.663 210.338" stroke="white"/>
<path d="M248.705 220.291C252.733 220.291 256.364 222.716 257.905 226.435C259.446 230.154 258.594 234.435 255.746 237.281C252.899 240.128 248.616 240.979 244.895 239.439C241.174 237.898 238.748 234.269 238.748 230.244" stroke="white"/>
<path d="M248.706 194.671V245.911" stroke="white"/>
</svg>
